name Walk4.mot
datacolumns 19
datarows 12
range 2.00500000 2.06000000
endheader

                time	   L_ground_force_vx	   L_ground_force_vy	   L_ground_force_vz	   L_ground_force_px	   L_ground_force_py	   L_ground_force_pz	   R_ground_force_vx	   R_ground_force_vy	   R_ground_force_vz	   R_ground_force_px	   R_ground_force_py	   R_ground_force_pz	   L_ground_torque_x	   L_ground_torque_y	   L_ground_torque_z	   R_ground_torque_x	   R_ground_torque_y	   R_ground_torque_z	
          2.00500000	         -0.00000000	         -0.00000000	          0.00000000	          0.00000000	          0.00000000	          0.00000000	        -22.78738780	        527.17239436	        -36.04834298	          0.24416771	          0.00000000	          0.08272061	          0.00000000	         -0.00000000	          0.00000000	          0.00000000	          1.63153149	          0.00000000	
          2.01000000	         -0.00000000	         -0.00000000	          0.00000000	          0.00000000	          0.00000000	          0.00000000	        -20.33547749	        516.85546341	        -35.94546273	          0.24603854	          0.00000000	          0.08333986	          0.00000000	         -0.00000000	          0.00000000	          0.00000000	          1.61294189	          0.00000000	
          2.01500000	          0.00000000	         -0.00000000	          0.00000000	          0.00000000	          0.00000000	          0.00000000	        -18.15010502	        507.56390464	        -36.11045139	          0.24799985	          0.00000000	          0.08412273	          0.00000000	         -0.00000000	          0.00000000	          0.00000000	          1.54533828	          0.00000000	
          2.02000000	          0.00000000	          0.00000000	         -0.00000000	         -0.00000000	          0.00000000	         -0.00000000	        -16.03053957	        499.23835948	        -36.35687365	          0.25031079	          0.00000000	          0.08502627	          0.00000000	          0.00000000	          0.00000000	          0.00000000	          1.46506345	          0.00000000	
          2.02500000	          0.00000000	          0.00000000	         -0.00000000	         -0.00000000	          0.00000000	         -0.00000000	        -13.90981760	        491.68772707	        -36.49397935	          0.25280634	          0.00000000	          0.08569553	          0.00000000	          0.00000000	          0.00000000	          0.00000000	          1.38919405	          0.00000000	
          2.03000000	         -0.00000000	         -0.00000000	         -0.00000000	         -0.00000000	          0.00000000	         -0.00000000	        -11.97011609	        484.83507576	        -36.43768230	          0.25521809	          0.00000000	          0.08618426	          0.00000000	         -0.00000000	          0.00000000	          0.00000000	          1.33135337	          0.00000000	
          2.03500000	         -0.00000000	         -0.00000000	          0.00000000	          0.00000000	          0.00000000	          0.00000000	        -10.26925440	        478.68645520	        -36.16319526	          0.25737658	          0.00000000	          0.08663820	          0.00000000	         -0.00000000	          0.00000000	          0.00000000	          1.32215336	          0.00000000	
          2.04000000	         -0.00000000	         -0.00000000	          0.00000000	          0.00000000	          0.00000000	          0.00000000	         -8.77039961	        473.46619362	        -35.68446577	          0.25976672	          0.00000000	          0.08720211	          0.00000000	         -0.00000000	          0.00000000	          0.00000000	          1.31618043	          0.00000000	
          2.04500000	          0.00000000	          0.00000000	         -0.00000000	          0.00000000	          0.00000000	          0.00000000	         -7.36173120	        469.04704661	        -34.98516210	          0.26224466	          0.00000000	          0.08780004	          0.00000000	          0.00000000	          0.00000000	          0.00000000	          1.29008183	          0.00000000	
          2.05000000	          0.00000000	          0.00000000	         -0.00000000	         -0.00000000	          0.00000000	         -0.00000000	         -6.03505433	        465.48594219	        -34.10162403	          0.26458685	          0.00000000	          0.08827602	          0.00000000	          0.00000000	          0.00000000	          0.00000000	          1.25699437	          0.00000000	
          2.05500000	          0.00000000	          0.00000000	         -0.00000000	         -0.00000000	          0.00000000	         -0.00000000	         -4.78921253	        463.36524526	        -33.13205589	          0.26700083	          0.00000000	          0.08879897	          0.00000000	          0.00000000	          0.00000000	          0.00000000	          1.19854611	          0.00000000	
          2.06000000	         -0.00000000	         -0.00000000	          0.00000000	          0.00000000	          0.00000000	          0.00000000	         -3.61740875	        462.50307301	        -32.25798393	          0.26955480	          0.00000000	          0.08944428	          0.00000000	         -0.00000000	          0.00000000	          0.00000000	          1.15657260	          0.00000000	
